<svg id="Icon_awesome-music" data-name="Icon awesome-music" xmlns="http://www.w3.org/2000/svg" width="36" height="36.001" viewBox="0 0 36 36.001">
  <path id="Icon_awesome-music-2" data-name="Icon awesome-music" d="M36,2.251A2.248,2.248,0,0,0,33.074.105L10.575,6.75A2.249,2.249,0,0,0,9,8.895V27.276A9.727,9.727,0,0,0,6.75,27C3.022,27,0,29.014,0,31.5S3.022,36,6.75,36s6.75-2.014,6.75-4.5V15.069l18-5.275V22.776a9.727,9.727,0,0,0-2.25-.276c-3.728,0-6.75,2.014-6.75,4.5s3.022,4.5,6.75,4.5S36,29.486,36,27V2.251Z" transform="translate(0 0.001)" fill="#fff"/>
</svg>
