<svg xmlns="http://www.w3.org/2000/svg" width="161" height="172.702" viewBox="0 0 161 172.702">
  <g id="Group_41" data-name="Group 41" transform="translate(-352 -433.298)">
    <text id="New_Page" data-name="New Page" transform="translate(352 599)" fill="#fff" font-size="35" font-family="HelveticaNeue, Helvetica Neue"><tspan x="0" y="0">New Page</tspan></text>
    <path id="Icon_awesome-file-invoice" data-name="Icon awesome-file-invoice" d="M54.958,48.851H18.319V61.064H54.958ZM71.941,20.037,53.259,1.336A4.576,4.576,0,0,0,50.015,0H48.851V24.426H73.277V23.262A4.565,4.565,0,0,0,71.941,20.037Zm-29.2,5.916V0H4.58A4.569,4.569,0,0,0,0,4.58V93.123A4.569,4.569,0,0,0,4.58,97.7H68.7a4.569,4.569,0,0,0,4.58-4.58V30.532H47.325A4.593,4.593,0,0,1,42.745,25.952ZM12.213,13.739a1.526,1.526,0,0,1,1.527-1.527H29.005a1.526,1.526,0,0,1,1.527,1.527v3.053a1.526,1.526,0,0,1-1.527,1.527H13.739a1.526,1.526,0,0,1-1.527-1.527Zm0,12.213a1.526,1.526,0,0,1,1.527-1.527H29.005a1.526,1.526,0,0,1,1.527,1.527v3.053a1.526,1.526,0,0,1-1.527,1.527H13.739a1.526,1.526,0,0,1-1.527-1.527ZM61.064,83.963a1.526,1.526,0,0,1-1.527,1.527H44.271a1.526,1.526,0,0,1-1.527-1.527V80.91a1.526,1.526,0,0,1,1.527-1.527H59.537a1.526,1.526,0,0,1,1.527,1.527Zm0-38.165V64.117a3.052,3.052,0,0,1-3.053,3.053H15.266a3.052,3.052,0,0,1-3.053-3.053V45.8a3.052,3.052,0,0,1,3.053-3.053H58.011A3.052,3.052,0,0,1,61.064,45.8Z" transform="translate(395.862 433.298)" fill="#fff"/>
  </g>
</svg>
