<svg xmlns="http://www.w3.org/2000/svg" width="180" height="203" viewBox="0 0 180 203">
  <g id="Group_44" data-name="Group 44" transform="translate(-1398 -423)">
    <text id="New_Photo_Note" data-name="New
Photo Note" transform="translate(1488 578)" fill="#fff" font-size="35" font-family="HelveticaNeue, Helvetica Neue"><tspan x="-35" y="0">New</tspan><tspan x="-89" y="41">Photo Note</tspan></text>
    <g id="Icon_material-photo-camera" data-name="Icon material-photo-camera" transform="translate(1437 420)">
      <path id="Path_12" data-name="Path 12" d="M43.9,28.551A15.351,15.351,0,1,1,28.551,13.2,15.351,15.351,0,0,1,43.9,28.551Z" transform="translate(22.421 22.421)" fill="#fff"/>
      <path id="Path_13" data-name="Path 13" d="M36.581,3,27.8,12.595H12.595A9.623,9.623,0,0,0,3,22.189V79.756a9.623,9.623,0,0,0,9.595,9.595H89.351a9.623,9.623,0,0,0,9.595-9.595V22.189a9.623,9.623,0,0,0-9.595-9.595H74.144L65.365,3ZM50.973,74.959A23.986,23.986,0,1,1,74.959,50.973,24,24,0,0,1,50.973,74.959Z" fill="#fff"/>
    </g>
  </g>
</svg>
