<svg xmlns="http://www.w3.org/2000/svg" width="170" height="198" viewBox="0 0 170 198">
  <g id="Group_43" data-name="Group 43" transform="translate(-1055 -428)">
    <text id="New_Short_Note" data-name="New
Short Note" transform="translate(1140 578)" fill="#fff" font-size="35" font-family="HelveticaNeue, Helvetica Neue"><tspan x="-35" y="0">New</tspan><tspan x="-84" y="41">Short Note</tspan></text>
    <path id="Icon_awesome-sticky-note" data-name="Icon awesome-sticky-note" d="M56.94,54.81H81.76V6.63a4.369,4.369,0,0,0-4.38-4.38h-73A4.369,4.369,0,0,0,0,6.63v73a4.369,4.369,0,0,0,4.38,4.38H52.56V59.19A4.393,4.393,0,0,1,56.94,54.81ZM80.482,64.847,62.6,82.732a4.377,4.377,0,0,1-3.1,1.277H58.4V60.65H81.76v1.113A4.366,4.366,0,0,1,80.482,64.847Z" transform="translate(1101.12 425.75)" fill="#fff"/>
  </g>
</svg>
