<svg xmlns="http://www.w3.org/2000/svg" width="194" height="215" viewBox="0 0 194 215">
  <g id="Group_42" data-name="Group 42" transform="translate(-681 -411)">
    <text id="New_Voice_Memo" data-name="New
Voice Memo" transform="translate(778 578)" fill="#fff" font-size="35" font-family="HelveticaNeue, Helvetica Neue"><tspan x="-35" y="0">New</tspan><tspan x="-96" y="41">Voice Memo</tspan></text>
    <path id="Icon_material-keyboard-voice" data-name="Icon material-keyboard-voice" d="M43.811,66.747a15.5,15.5,0,0,0,15.51-15.562l.052-31.124a15.562,15.562,0,1,0-31.124,0V51.186A15.541,15.541,0,0,0,43.811,66.747ZM71.3,51.186c0,15.562-13.176,26.455-27.493,26.455S16.318,66.747,16.318,51.186H7.5C7.5,68.926,21.609,83.5,38.624,86.044v17.014H49V86.044c17.014-2.49,31.124-17.118,31.124-34.859Z" transform="translate(734.5 406.5)" fill="#fff"/>
  </g>
</svg>
