<svg width="128" height="128" viewBox="0 0 128 128" fill="none" xmlns="http://www.w3.org/2000/svg">
<g clip-path="url(#clip0_54_2)">
<path d="M64.0586 0C34.6716 0 9.64609 18.9238 1.31852 45.0041H10.6163C11.5822 42.4264 12.7371 39.9426 14.0736 37.562H31.9659C31.1855 39.9964 30.544 42.4864 30.0126 45.0041H39.0759C39.7091 42.4669 40.4638 39.9752 41.3613 37.562H58.6285V45.0041H67.3793V37.562H86.0333C87.037 39.9774 87.8805 42.4647 88.5921 45.0041H97.6555C97.0466 42.4837 96.3378 39.9986 95.4678 37.562H114.044C115.38 39.943 116.535 42.4259 117.501 45.0041H126.779C118.452 18.9238 93.4457 0 64.0586 0ZM77.263 10.2939C89.5115 13.1103 100.209 19.7153 107.949 28.8112H91.7174C88.0923 21.7978 83.289 15.4679 77.263 10.2939ZM48.2955 10.9385C42.8708 15.9739 38.592 22.0708 35.4037 28.8112H20.1679C27.365 20.3537 37.1164 14.0508 48.2955 10.9385ZM67.3793 13.7513C73.1487 17.7006 77.804 22.9087 81.5017 28.8112H67.3793V13.7513ZM58.6285 13.8099V28.8112H45.4437C48.831 22.8951 53.1553 17.7001 58.6285 13.8099ZM3.93595 53.4619C3.0652 53.4619 2.33779 53.6585 1.74825 54.0674C1.15871 54.4765 0.869263 54.9861 0.869263 55.5715C0.869263 56.0096 0.995415 56.6167 1.27946 57.4076L5.92832 70.7682C6.06994 71.1677 6.23294 71.6181 6.41665 72.0964C6.60034 72.5748 6.85704 73.0003 7.1589 73.3661C7.46074 73.7319 7.87155 74.0128 8.38948 74.2255C8.90739 74.4383 9.5578 74.5381 10.3428 74.5381C11.3163 74.5381 12.0809 74.3616 12.6672 74.0107C13.2535 73.6598 13.672 73.2825 13.8978 72.8582C14.1236 72.434 14.4044 71.7805 14.7573 70.8854L18.9178 59.1656L23.0588 70.944C23.4035 71.8167 23.6782 72.4607 23.8987 72.8778C24.1192 73.2948 24.5234 73.6842 25.1098 74.0302C25.696 74.3762 26.4761 74.5381 27.4537 74.5381C28.4814 74.5381 29.287 74.3693 29.8563 74.0107C30.4256 73.6521 30.824 73.2484 31.0478 72.7996C31.2715 72.3509 31.5338 71.6668 31.8487 70.7682L36.4975 57.4076C36.7856 56.5689 36.9272 55.9618 36.9273 55.5715C36.9272 54.9757 36.6255 54.4713 36.0287 54.0674C35.4319 53.6636 34.7159 53.4619 33.8606 53.4619C33.0027 53.4619 32.3409 53.6138 31.8877 53.9307C31.4345 54.2476 31.1233 54.5921 30.9501 54.966C30.7769 55.3399 30.5983 55.834 30.4228 56.4309L27.1412 67.7992L23.469 57.1537C23.1258 56.2597 22.8471 55.6174 22.6291 55.2004C22.411 54.7833 21.9896 54.3787 21.3985 54.0088C20.8073 53.639 19.9827 53.4619 18.9178 53.4619C17.8706 53.4619 17.0525 53.633 16.4371 53.9893C15.8216 54.3457 15.3821 54.7634 15.1284 55.2199C14.8747 55.6764 14.5976 56.3115 14.2885 57.1537L10.6358 67.7992L7.3347 56.3528C7.07654 55.4847 6.74152 54.7941 6.33851 54.2628C5.9355 53.7315 5.1385 53.4619 3.93595 53.4619ZM48.9205 53.4619C48.0498 53.4619 47.3224 53.6585 46.7328 54.0674C46.1433 54.4765 45.8539 54.9861 45.8539 55.5715C45.8539 56.0096 45.9995 56.6167 46.2836 57.4076L50.9324 70.7682C51.074 71.1677 51.2371 71.6181 51.4208 72.0964C51.6045 72.5748 51.8416 73.0003 52.1435 73.3661C52.4453 73.7319 52.8561 74.0128 53.3741 74.2255C53.892 74.4383 54.5424 74.5381 55.3274 74.5381C56.3009 74.5381 57.085 74.3616 57.6713 74.0107C58.2576 73.6598 58.6566 73.2825 58.8824 72.8582C59.1082 72.434 59.389 71.7805 59.7418 70.8854L63.9024 59.1656L68.0434 70.944C68.3881 71.8167 68.6628 72.4607 68.8833 72.8778C69.1038 73.2948 69.508 73.6842 70.0943 74.0302C70.6806 74.3762 71.4607 74.5381 72.4383 74.5381C73.4661 74.5381 74.2715 74.3693 74.8409 74.0107C75.4102 73.6521 75.8086 73.2484 76.0324 72.7996C76.2561 72.3509 76.5184 71.6668 76.8333 70.7682L81.4821 57.4076C81.7702 56.5689 81.9118 55.9618 81.9118 55.5715C81.9118 54.9757 81.6101 54.4713 81.0133 54.0674C80.4165 53.6636 79.7005 53.4619 78.8452 53.4619C77.9873 53.4619 77.3255 53.6138 76.8723 53.9307C76.4191 54.2476 76.1079 54.5921 75.9347 54.966C75.7615 55.3399 75.5829 55.834 75.4073 56.4309L72.1258 67.7992L68.4536 57.1537C68.1104 56.2597 67.8317 55.6174 67.6137 55.2004C67.3955 54.7833 66.9937 54.3787 66.4026 54.0088C65.8114 53.639 64.9869 53.4619 63.9219 53.4619C62.8747 53.4619 62.0371 53.633 61.4217 53.9893C60.8062 54.3457 60.3667 54.7634 60.113 55.2199C59.8593 55.6764 59.5822 56.3115 59.273 57.1537L55.6204 67.7992L52.3193 56.3528C52.0611 55.4847 51.7456 54.7941 51.3426 54.2628C50.9396 53.7315 50.1231 53.4619 48.9205 53.4619ZM93.9051 53.4619C93.0344 53.4619 92.307 53.6585 91.7174 54.0674C91.1279 54.4765 90.8384 54.9861 90.8384 55.5715C90.8384 56.0096 90.9841 56.6167 91.2682 57.4076L95.917 70.7682C96.0586 71.1677 96.2216 71.6181 96.4053 72.0964C96.589 72.5748 96.8262 73.0003 97.1281 73.3661C97.4299 73.7319 97.8407 74.0128 98.3587 74.2255C98.8766 74.4383 99.527 74.5381 100.312 74.5381C101.285 74.5381 102.07 74.3616 102.656 74.0107C103.242 73.6598 103.641 73.2825 103.867 72.8582C104.093 72.434 104.393 71.7805 104.746 70.8854L108.887 59.1656L113.028 70.944C113.373 71.8167 113.647 72.4607 113.868 72.8778C114.088 73.2948 114.493 73.6842 115.079 74.0302C115.665 74.3762 116.445 74.5381 117.423 74.5381C118.451 74.5381 119.256 74.3693 119.825 74.0107C120.395 73.6521 120.793 73.2484 121.017 72.7996C121.241 72.3509 121.503 71.6668 121.818 70.7682L126.467 57.4076C126.755 56.5689 126.896 55.9618 126.896 55.5715C126.896 54.9757 126.614 54.4713 126.017 54.0674C125.421 53.6636 124.685 53.4619 123.83 53.4619C122.972 53.4619 122.31 53.6138 121.857 53.9307C121.404 54.2476 121.092 54.5921 120.919 54.966C120.746 55.3399 120.568 55.834 120.392 56.4309L117.13 67.7992L113.438 57.1537C113.095 56.2597 112.816 55.6174 112.598 55.2004C112.38 54.7833 111.978 54.3787 111.387 54.0088C110.796 53.639 109.971 53.4619 108.906 53.4619C107.859 53.4619 107.022 53.633 106.406 53.9893C105.791 54.3457 105.351 54.7634 105.098 55.2199C104.844 55.6764 104.567 56.3115 104.258 57.1537L100.605 67.7992L97.3234 56.3528C97.0652 55.4847 96.7302 54.7941 96.3272 54.2628C95.9242 53.7315 95.1077 53.4619 93.9051 53.4619ZM0.986467 81.8434C8.93642 108.513 34.2398 128 64.0586 128C93.8779 128 119.181 108.513 127.131 81.8434H117.892C117.011 84.3586 115.958 86.7904 114.727 89.1292H95.9756C96.774 86.7447 97.4329 84.3071 97.9875 81.8434H89.0609C88.4377 84.3346 87.6911 86.7686 86.7756 89.1292H67.3793V81.8434H58.6285V89.1292H40.912C40.1087 86.7774 39.4175 84.3408 38.8415 81.8434H29.8563C30.3597 84.31 30.9741 86.7448 31.6729 89.1292H13.3899C12.1595 86.7904 11.0871 84.3586 10.2061 81.8434H0.986467ZM19.1327 97.88H34.8177C38.019 105.285 42.2634 111.898 47.729 116.925C36.2216 113.596 26.3039 106.842 19.1327 97.88ZM44.5647 97.88H58.6285V114.229C52.9454 110.627 48.1921 104.883 44.5647 97.88ZM67.3793 97.88H82.4197C78.6011 104.263 73.6353 109.785 67.3793 113.819V97.88ZM92.4792 97.88H108.985C101.086 107.75 89.8394 114.937 76.8333 117.823C83.5071 112.427 88.6927 105.556 92.4792 97.88Z" fill="white"/>
</g>
<defs>
<clipPath id="clip0_54_2">
<rect width="128" height="128" fill="white"/>
</clipPath>
</defs>
</svg>
